<svg width="512" height="512" version="1.1" xmlns="http://www.w3.org/2000/svg" desc="Created with imagetracer.js version 1.2.6" ><path fill="rgb(0,0,0)" stroke="rgb(0,0,0)" stroke-width="1" opacity="0" d="M 0 0 L 83 0.5 Q 60.2 2.7 45.5 13 L 14.5 4 L 7.5 4 L 4 6.5 L 3 15.5 L 12 47.5 Q 2.7 60.7 0.5 81 L 0 0 Z " /><path fill="rgb(0,0,0)" stroke="rgb(0,0,0)" stroke-width="1" opacity="0" d="M 104.5 0 L 512 0 L 512 407.5 L 511 407.5 L 510 397.5 L 505 382.5 Q 496.7 363.3 482.5 350 Q 466.5 334 441.5 327 L 431.5 325 L 406 325 L 409 309.5 L 409 288.5 L 406 273.5 L 397 251.5 L 406 220.5 L 406 212.5 Q 403.9 208.1 397.5 208 L 361.5 218 L 353.5 213 L 334.5 207 Q 329.8 208.3 328.5 206 L 302.5 206 L 282.5 211 L 261 222 Q 254.5 184.7 229.5 165 Q 209 146 173 142.5 Q 181.3 131.3 185 115.5 L 186 104.5 L 187 103.5 L 187 83.5 L 182 61.5 L 171 40 L 163.5 38 L 160 39 L 160 37.5 L 149.5 27 L 144 24 L 145 18.5 L 141.5 13 L 125.5 5 L 110.5 1 L 104.5 1 L 104.5 0 Z M 205 61 L 203 62 L 199 67 L 200 78 L 201 79 L 201 89 L 202 90 L 201 109 L 199 116 L 200 120 L 206 124 L 212 123 L 215 119 L 216 107 L 217 106 L 217 82 L 214 66 Q 212 60 205 61 Z " /><path fill="rgb(0,0,0)" stroke="rgb(0,0,0)" stroke-width="1" opacity="0" d="M 0.5 104 Q 7 143 31.5 164 Q 43 174.5 58.5 181 L 70.5 185 L 89 187 Q 82 197.8 78 212.5 L 76 221.5 L 76 229.5 L 75 230.5 L 75 242.5 L 76 243.5 L 76 251.5 L 78 261.5 L 88 284.5 L 79 314.5 L 79 321.5 L 82.5 326 L 91.5 326 L 114.5 319 L 122.5 318 L 133.5 324 L 150.5 329 Q 155.3 327.8 156.5 330 L 180.5 330 L 191.5 328 L 206.5 323 L 222.5 313 Q 225 330 232 342.5 Q 241.6 359.9 256.5 372 Q 269.6 382.9 287.5 389 L 307.5 393 L 323.5 393 L 328 392 L 325 406.5 L 325 429.5 Q 331.6 468.4 356.5 489 L 362.5 490 L 367.5 488 Q 374.9 495.3 386 498 Q 384.8 504.5 388.5 507 Q 396.4 511.1 408 511.5 L 0 512 L 0.5 104 Z M 300 411 L 295 416 L 296 439 L 300 456 L 305 469 L 311 473 L 317 472 L 320 468 L 320 463 L 315 452 L 312 440 L 310 416 Q 309 409 300 411 Z " /><path fill="rgb(0,0,0)" stroke="rgb(0,0,0)" stroke-width="1" opacity="0" d="M 511.5 431 L 512 512 L 429 511.5 L 443.5 509 L 464.5 500 L 467.5 500 L 498.5 509 L 504.5 509 L 509 505.5 L 510 499.5 L 500 464.5 Q 509 451 511.5 431 Z " /><path fill="rgb(0,0,0)" stroke="rgb(0,0,0)" stroke-width="1" opacity="0.44313725490196076" d="M 83.5 0 L 89 0.5 L 83.5 1 L 83.5 0 Z " /><path fill="rgb(0,0,0)" stroke="rgb(0,0,0)" stroke-width="1" opacity="0.44313725490196076" d="M 98.5 0 L 104 0.5 L 98.5 1 L 98.5 0 Z " /><path fill="rgb(0,0,0)" stroke="rgb(0,0,0)" stroke-width="1" opacity="0.44313725490196076" d="M 76.5 1 L 79 1.5 L 76.5 2 L 76.5 1 Z " /><path fill="rgb(0,0,0)" stroke="rgb(0,0,0)" stroke-width="1" opacity="0.44313725490196076" d="M 108.5 1 L 111 1.5 L 108.5 2 L 108.5 1 Z " /><path fill="rgb(0,0,0)" stroke="rgb(0,0,0)" stroke-width="1" opacity="0.44313725490196076" d="M 5.5 5 L 4.5 7 L 5.5 5 Z " /><path fill="rgb(0,0,0)" stroke="rgb(0,0,0)" stroke-width="1" opacity="0.44313725490196076" d="M 141.5 13 L 143.5 16 L 141.5 13 Z " /><path fill="rgb(0,0,0)" stroke="rgb(0,0,0)" stroke-width="1" opacity="0.44313725490196076" d="M 163.5 38 L 167 38.5 L 163.5 39 L 163.5 38 Z " /><path fill="rgb(0,0,0)" stroke="rgb(0,0,0)" stroke-width="1" opacity="0.44313725490196076" d="M 173.5 45 L 174.5 47 L 173.5 45 Z " /><path fill="rgb(0,0,0)" stroke="rgb(0,0,0)" stroke-width="1" opacity="0.44313725490196076" d="M 202.5 62 L 200.5 65 L 202.5 62 Z " /><path fill="rgb(0,0,0)" stroke="rgb(0,0,0)" stroke-width="1" opacity="0.44313725490196076" d="M 199.5 66 L 200 71.5 L 199 71.5 L 199.5 66 Z " /><path fill="rgb(0,0,0)" stroke="rgb(0,0,0)" stroke-width="1" opacity="0.44313725490196076" d="M 2.5 70 L 3 72.5 L 2 72.5 L 2.5 70 Z " /><path fill="rgb(0,0,0)" stroke="rgb(0,0,0)" stroke-width="1" opacity="0.44313725490196076" d="M 184.5 71 L 185 73.5 L 184 73.5 L 184.5 71 Z " /><path fill="rgb(0,0,0)" stroke="rgb(0,0,0)" stroke-width="1" opacity="0.44313725490196076" d="M 215.5 73 L 216 76.5 L 215 76.5 L 215.5 73 Z " /><path fill="rgb(0,0,0)" stroke="rgb(0,0,0)" stroke-width="1" opacity="0.44313725490196076" d="M 1.5 75 L 2 77.5 L 1 77.5 L 1.5 75 Z " /><path fill="rgb(0,0,0)" stroke="rgb(0,0,0)" stroke-width="1" opacity="0.44313725490196076" d="M 200.5 75 L 201 77.5 L 200 77.5 L 200.5 75 Z " /><path fill="rgb(0,0,0)" stroke="rgb(0,0,0)" stroke-width="1" opacity="0.44313725490196076" d="M 185.5 76 L 186 78.5 L 185 78.5 L 185.5 76 Z " /><path fill="rgb(0,0,0)" stroke="rgb(0,0,0)" stroke-width="1" opacity="0.44313725490196076" d="M 0.5 81 L 1 85.5 L 0 85.5 L 0.5 81 Z " /><path fill="rgb(0,0,0)" stroke="rgb(0,0,0)" stroke-width="1" opacity="0.44313725490196076" d="M 216.5 81 L 217 86.5 L 216 86.5 L 216.5 81 Z " /><path fill="rgb(0,0,0)" stroke="rgb(0,0,0)" stroke-width="1" opacity="0.44313725490196076" d="M 201.5 82 L 202 88.5 L 201 88.5 L 201.5 82 Z " /><path fill="rgb(0,0,0)" stroke="rgb(0,0,0)" stroke-width="1" opacity="0.44313725490196076" d="M 186.5 83 L 187 89.5 L 186 89.5 L 186.5 83 Z " /><path fill="rgb(0,0,0)" stroke="rgb(0,0,0)" stroke-width="1" opacity="0.44313725490196076" d="M 186.5 98 L 187 103.5 L 186 103.5 L 186.5 98 Z " /><path fill="rgb(0,0,0)" stroke="rgb(0,0,0)" stroke-width="1" opacity="0.44313725490196076" d="M 201.5 99 L 202 104.5 L 201 104.5 L 201.5 99 Z " /><path fill="rgb(0,0,0)" stroke="rgb(0,0,0)" stroke-width="1" opacity="0.44313725490196076" d="M 0.5 100 L 1 103.5 L 0 103.5 L 0.5 100 Z " /><path fill="rgb(0,0,0)" stroke="rgb(0,0,0)" stroke-width="1" opacity="0.44313725490196076" d="M 216.5 100 L 217 105.5 L 216 105.5 L 216.5 100 Z " /><path fill="rgb(0,0,0)" stroke="rgb(0,0,0)" stroke-width="1" opacity="0.44313725490196076" d="M 185.5 108 L 186 110.5 L 185 110.5 L 185.5 108 Z " /><path fill="rgb(0,0,0)" stroke="rgb(0,0,0)" stroke-width="1" opacity="0.44313725490196076" d="M 200.5 109 L 201 111.5 L 200 111.5 L 200.5 109 Z " /><path fill="rgb(0,0,0)" stroke="rgb(0,0,0)" stroke-width="1" opacity="0.44313725490196076" d="M 215.5 111 L 216 113.5 L 215 113.5 L 215.5 111 Z " /><path fill="rgb(0,0,0)" stroke="rgb(0,0,0)" stroke-width="1" opacity="0.44313725490196076" d="M 199.5 115 L 200 117.5 L 199 117.5 L 199.5 115 Z " /><path fill="rgb(0,0,0)" stroke="rgb(0,0,0)" stroke-width="1" opacity="0.44313725490196076" d="M 213.5 120 L 211.5 123 L 213.5 120 Z " /><path fill="rgb(0,0,0)" stroke="rgb(0,0,0)" stroke-width="1" opacity="0.44313725490196076" d="M 205.5 123 L 210 123.5 L 205.5 124 L 205.5 123 Z " /><path fill="rgb(0,0,0)" stroke="rgb(0,0,0)" stroke-width="1" opacity="0.44313725490196076" d="M 174.5 140 L 173.5 142 L 174.5 140 Z " /><path fill="rgb(0,0,0)" stroke="rgb(0,0,0)" stroke-width="1" opacity="0.44313725490196076" d="M 173.5 143 L 179 143.5 L 173.5 144 L 173.5 143 Z " /><path fill="rgb(0,0,0)" stroke="rgb(0,0,0)" stroke-width="1" opacity="0.44313725490196076" d="M 15.5 144 L 16.5 146 L 15.5 144 Z " /><path fill="rgb(0,0,0)" stroke="rgb(0,0,0)" stroke-width="1" opacity="0.44313725490196076" d="M 183.5 144 L 186 144.5 L 183.5 145 L 183.5 144 Z " /><path fill="rgb(0,0,0)" stroke="rgb(0,0,0)" stroke-width="1" opacity="0.44313725490196076" d="M 17.5 147 L 18.5 149 L 17.5 147 Z " /><path fill="rgb(0,0,0)" stroke="rgb(0,0,0)" stroke-width="1" opacity="0.44313725490196076" d="M 20.5 151 L 21.5 153 L 20.5 151 Z " /><path fill="rgb(0,0,0)" stroke="rgb(0,0,0)" stroke-width="1" opacity="0.44313725490196076" d="M 215.5 155 L 216.5 157 L 215.5 155 Z " /><path fill="rgb(0,0,0)" stroke="rgb(0,0,0)" stroke-width="1" opacity="0.44313725490196076" d="M 25.5 157 L 31.5 164 L 25.5 157 Z " /><path fill="rgb(0,0,0)" stroke="rgb(0,0,0)" stroke-width="1" opacity="0.44313725490196076" d="M 224.5 161 L 225.5 163 L 224.5 161 Z " /><path fill="rgb(0,0,0)" stroke="rgb(0,0,0)" stroke-width="1" opacity="0.44313725490196076" d="M 229.5 165 L 240.5 177 L 229.5 165 Z " /><path fill="rgb(0,0,0)" stroke="rgb(0,0,0)" stroke-width="1" opacity="0.44313725490196076" d="M 35.5 166 L 37.5 169 L 35.5 166 Z " /><path fill="rgb(0,0,0)" stroke="rgb(0,0,0)" stroke-width="1" opacity="0.44313725490196076" d="M 242.5 179 L 243.5 181 L 242.5 179 Z " /><path fill="rgb(0,0,0)" stroke="rgb(0,0,0)" stroke-width="1" opacity="0.44313725490196076" d="M 245.5 183 L 246.5 185 L 245.5 183 Z " /><path fill="rgb(0,0,0)" stroke="rgb(0,0,0)" stroke-width="1" opacity="0.44313725490196076" d="M 81.5 186 L 87 186.5 L 81.5 187 L 81.5 186 Z " /><path fill="rgb(0,0,0)" stroke="rgb(0,0,0)" stroke-width="1" opacity="0.44313725490196076" d="M 247.5 186 L 248.5 188 L 247.5 186 Z " /><path fill="rgb(0,0,0)" stroke="rgb(0,0,0)" stroke-width="1" opacity="0.44313725490196076" d="M 302.5 206 L 307 206.5 L 302.5 207 L 302.5 206 Z " /><path fill="rgb(0,0,0)" stroke="rgb(0,0,0)" stroke-width="1" opacity="0.44313725490196076" d="M 325.5 206 L 329 206.5 L 325.5 207 L 325.5 206 Z " /><path fill="rgb(0,0,0)" stroke="rgb(0,0,0)" stroke-width="1" opacity="0.44313725490196076" d="M 296.5 207 L 299 207.5 L 296.5 208 L 296.5 207 Z " /><path fill="rgb(0,0,0)" stroke="rgb(0,0,0)" stroke-width="1" opacity="0.44313725490196076" d="M 332.5 207 L 335 207.5 L 332.5 208 L 332.5 207 Z " /><path fill="rgb(0,0,0)" stroke="rgb(0,0,0)" stroke-width="1" opacity="0.44313725490196076" d="M 397.5 208 L 400 208.5 L 397.5 209 L 397.5 208 Z " /><path fill="rgb(0,0,0)" stroke="rgb(0,0,0)" stroke-width="1" opacity="0.44313725490196076" d="M 77.5 216 L 78 218.5 L 77 218.5 L 77.5 216 Z " /><path fill="rgb(0,0,0)" stroke="rgb(0,0,0)" stroke-width="1" opacity="0.44313725490196076" d="M 359.5 216 L 360.5 218 L 359.5 216 Z " /><path fill="rgb(0,0,0)" stroke="rgb(0,0,0)" stroke-width="1" opacity="0.44313725490196076" d="M 260.5 217 L 261 219.5 L 260 219.5 L 260.5 217 Z " /><path fill="rgb(0,0,0)" stroke="rgb(0,0,0)" stroke-width="1" opacity="0.44313725490196076" d="M 76.5 221 L 77 224.5 L 76 224.5 L 76.5 221 Z " /><path fill="rgb(0,0,0)" stroke="rgb(0,0,0)" stroke-width="1" opacity="0.44313725490196076" d="M 75.5 230 L 76 242.5 L 75 242.5 L 75.5 230 Z " /><path fill="rgb(0,0,0)" stroke="rgb(0,0,0)" stroke-width="1" opacity="0.44313725490196076" d="M 76.5 249 L 77 251.5 L 76 251.5 L 76.5 249 Z " /><path fill="rgb(0,0,0)" stroke="rgb(0,0,0)" stroke-width="1" opacity="0.44313725490196076" d="M 407.5 282 L 408 284.5 L 407 284.5 L 407.5 282 Z " /><path fill="rgb(0,0,0)" stroke="rgb(0,0,0)" stroke-width="1" opacity="0.44313725490196076" d="M 408.5 288 L 409 293.5 L 408 293.5 L 408.5 288 Z " /><path fill="rgb(0,0,0)" stroke="rgb(0,0,0)" stroke-width="1" opacity="0.44313725490196076" d="M 408.5 304 L 409 309.5 L 408 309.5 L 408.5 304 Z " /><path fill="rgb(0,0,0)" stroke="rgb(0,0,0)" stroke-width="1" opacity="0.44313725490196076" d="M 223.5 314 L 224 316.5 L 223 316.5 L 223.5 314 Z " /><path fill="rgb(0,0,0)" stroke="rgb(0,0,0)" stroke-width="1" opacity="0.44313725490196076" d="M 407.5 314 L 408 316.5 L 407 316.5 L 407.5 314 Z " /><path fill="rgb(0,0,0)" stroke="rgb(0,0,0)" stroke-width="1" opacity="0.44313725490196076" d="M 215.5 317 L 214.5 319 L 215.5 317 Z " /><path fill="rgb(0,0,0)" stroke="rgb(0,0,0)" stroke-width="1" opacity="0.44313725490196076" d="M 224.5 319 L 225 321.5 L 224 321.5 L 224.5 319 Z " /><path fill="rgb(0,0,0)" stroke="rgb(0,0,0)" stroke-width="1" opacity="0.44313725490196076" d="M 80.5 323 L 84 325.5 L 82.5 326 L 80.5 323 Z " /><path fill="rgb(0,0,0)" stroke="rgb(0,0,0)" stroke-width="1" opacity="0.44313725490196076" d="M 405.5 323 L 406 325 L 411 325.5 L 405 326 L 405.5 323 Z " /><path fill="rgb(0,0,0)" stroke="rgb(0,0,0)" stroke-width="1" opacity="0.44313725490196076" d="M 428.5 325 L 432 325.5 L 428.5 326 L 428.5 325 Z " /><path fill="rgb(0,0,0)" stroke="rgb(0,0,0)" stroke-width="1" opacity="0.44313725490196076" d="M 435.5 326 L 438 326.5 L 435.5 327 L 435.5 326 Z " /><path fill="rgb(0,0,0)" stroke="rgb(0,0,0)" stroke-width="1" opacity="0.44313725490196076" d="M 150.5 328 L 153 328.5 L 150.5 329 L 150.5 328 Z " /><path fill="rgb(0,0,0)" stroke="rgb(0,0,0)" stroke-width="1" opacity="0.44313725490196076" d="M 156.5 329 L 161 329.5 L 156.5 330 L 156.5 329 Z " /><path fill="rgb(0,0,0)" stroke="rgb(0,0,0)" stroke-width="1" opacity="0.44313725490196076" d="M 176.5 329 L 181 329.5 L 176.5 330 L 176.5 329 Z " /><path fill="rgb(0,0,0)" stroke="rgb(0,0,0)" stroke-width="1" opacity="0.44313725490196076" d="M 465.5 337 L 466.5 339 L 465.5 337 Z " /><path fill="rgb(0,0,0)" stroke="rgb(0,0,0)" stroke-width="1" opacity="0.44313725490196076" d="M 468.5 339 L 469.5 341 L 468.5 339 Z " /><path fill="rgb(0,0,0)" stroke="rgb(0,0,0)" stroke-width="1" opacity="0.44313725490196076" d="M 471.5 341 L 472.5 343 L 471.5 341 Z " /><path fill="rgb(0,0,0)" stroke="rgb(0,0,0)" stroke-width="1" opacity="0.44313725490196076" d="M 475.5 344 L 477.5 347 L 475.5 344 Z " /><path fill="rgb(0,0,0)" stroke="rgb(0,0,0)" stroke-width="1" opacity="0.44313725490196076" d="M 482.5 350 L 483.5 352 L 482.5 350 Z " /><path fill="rgb(0,0,0)" stroke="rgb(0,0,0)" stroke-width="1" opacity="0.44313725490196076" d="M 239.5 353 L 240.5 355 L 239.5 353 Z " /><path fill="rgb(0,0,0)" stroke="rgb(0,0,0)" stroke-width="1" opacity="0.44313725490196076" d="M 242.5 357 L 244.5 360 L 242.5 357 Z " /><path fill="rgb(0,0,0)" stroke="rgb(0,0,0)" stroke-width="1" opacity="0.44313725490196076" d="M 489.5 358 L 491.5 361 L 489.5 358 Z " /><path fill="rgb(0,0,0)" stroke="rgb(0,0,0)" stroke-width="1" opacity="0.44313725490196076" d="M 493.5 363 L 494.5 365 L 493.5 363 Z " /><path fill="rgb(0,0,0)" stroke="rgb(0,0,0)" stroke-width="1" opacity="0.44313725490196076" d="M 495.5 366 L 496.5 368 L 495.5 366 Z " /><path fill="rgb(0,0,0)" stroke="rgb(0,0,0)" stroke-width="1" opacity="0.44313725490196076" d="M 254.5 369 L 256.5 372 L 254.5 369 Z " /><path fill="rgb(0,0,0)" stroke="rgb(0,0,0)" stroke-width="1" opacity="0.44313725490196076" d="M 263.5 376 L 264.5 378 L 263.5 376 Z " /><path fill="rgb(0,0,0)" stroke="rgb(0,0,0)" stroke-width="1" opacity="0.44313725490196076" d="M 299.5 391 L 302 391.5 L 299.5 392 L 299.5 391 Z " /><path fill="rgb(0,0,0)" stroke="rgb(0,0,0)" stroke-width="1" opacity="0.44313725490196076" d="M 307.5 392 L 324 392.5 L 307.5 393 L 307.5 392 Z " /><path fill="rgb(0,0,0)" stroke="rgb(0,0,0)" stroke-width="1" opacity="0.44313725490196076" d="M 326.5 400 L 327 402.5 L 326 402.5 L 326.5 400 Z " /><path fill="rgb(0,0,0)" stroke="rgb(0,0,0)" stroke-width="1" opacity="0.44313725490196076" d="M 325.5 406 L 326 410.5 L 325 410.5 L 325.5 406 Z " /><path fill="rgb(0,0,0)" stroke="rgb(0,0,0)" stroke-width="1" opacity="0.44313725490196076" d="M 511.5 408 L 512 411.5 L 511 411.5 L 511.5 408 Z " /><path fill="rgb(0,0,0)" stroke="rgb(0,0,0)" stroke-width="1" opacity="0.44313725490196076" d="M 310.5 425 L 311 430.5 L 310 430.5 L 310.5 425 Z " /><path fill="rgb(0,0,0)" stroke="rgb(0,0,0)" stroke-width="1" opacity="0.44313725490196076" d="M 325.5 425 L 326 429.5 L 325 429.5 L 325.5 425 Z " /><path fill="rgb(0,0,0)" stroke="rgb(0,0,0)" stroke-width="1" opacity="0.44313725490196076" d="M 295.5 426 L 296 431.5 L 295 431.5 L 295.5 426 Z " /><path fill="rgb(0,0,0)" stroke="rgb(0,0,0)" stroke-width="1" opacity="0.44313725490196076" d="M 511.5 426 L 512 430.5 L 511 430.5 L 511.5 426 Z " /><path fill="rgb(0,0,0)" stroke="rgb(0,0,0)" stroke-width="1" opacity="0.44313725490196076" d="M 326.5 433 L 327 435.5 L 326 435.5 L 326.5 433 Z " /><path fill="rgb(0,0,0)" stroke="rgb(0,0,0)" stroke-width="1" opacity="0.44313725490196076" d="M 311.5 434 L 312 436.5 L 311 436.5 L 311.5 434 Z " /><path fill="rgb(0,0,0)" stroke="rgb(0,0,0)" stroke-width="1" opacity="0.44313725490196076" d="M 510.5 434 L 511 436.5 L 510 436.5 L 510.5 434 Z " /><path fill="rgb(0,0,0)" stroke="rgb(0,0,0)" stroke-width="1" opacity="0.44313725490196076" d="M 296.5 436 L 297 438.5 L 296 438.5 L 296.5 436 Z " /><path fill="rgb(0,0,0)" stroke="rgb(0,0,0)" stroke-width="1" opacity="0.44313725490196076" d="M 327.5 438 L 328 440.5 L 327 440.5 L 327.5 438 Z " /><path fill="rgb(0,0,0)" stroke="rgb(0,0,0)" stroke-width="1" opacity="0.44313725490196076" d="M 305.5 468 L 306.5 470 L 305.5 468 Z " /><path fill="rgb(0,0,0)" stroke="rgb(0,0,0)" stroke-width="1" opacity="0.44313725490196076" d="M 318.5 469 L 316.5 472 L 318.5 469 Z " /><path fill="rgb(0,0,0)" stroke="rgb(0,0,0)" stroke-width="1" opacity="0.44313725490196076" d="M 310.5 472 L 315 472.5 L 310.5 473 L 310.5 472 Z " /><path fill="rgb(0,0,0)" stroke="rgb(0,0,0)" stroke-width="1" opacity="0.44313725490196076" d="M 343.5 474 L 344.5 476 L 343.5 474 Z " /><path fill="rgb(0,0,0)" stroke="rgb(0,0,0)" stroke-width="1" opacity="0.44313725490196076" d="M 347.5 479 L 356.5 489 L 347.5 479 Z " /><path fill="rgb(0,0,0)" stroke="rgb(0,0,0)" stroke-width="1" opacity="0.44313725490196076" d="M 358.5 489 L 363 489.5 L 358.5 490 L 358.5 489 Z " /><path fill="rgb(0,0,0)" stroke="rgb(0,0,0)" stroke-width="1" opacity="0.44313725490196076" d="M 464.5 499 L 466 499.5 L 463.5 501 L 464.5 499 Z " /><path fill="rgb(0,0,0)" stroke="rgb(0,0,0)" stroke-width="1" opacity="0.44313725490196076" d="M 509.5 499 L 510 502.5 L 509 502.5 L 509.5 499 Z " /><path fill="rgb(0,0,0)" stroke="rgb(0,0,0)" stroke-width="1" opacity="0.44313725490196076" d="M 387.5 505 L 388.5 507 L 387.5 505 Z " /><path fill="rgb(0,0,0)" stroke="rgb(0,0,0)" stroke-width="1" opacity="0.44313725490196076" d="M 508.5 505 L 506.5 508 L 508.5 505 Z " /><path fill="rgb(0,0,0)" stroke="rgb(0,0,0)" stroke-width="1" opacity="0.44313725490196076" d="M 396.5 509 L 399 509.5 L 396.5 510 L 396.5 509 Z " /><path fill="rgb(0,0,0)" stroke="rgb(0,0,0)" stroke-width="1" opacity="0.44313725490196076" d="M 401.5 510 L 404 510.5 L 401.5 511 L 401.5 510 Z " /><path fill="rgb(0,0,0)" stroke="rgb(0,0,0)" stroke-width="1" opacity="0.44313725490196076" d="M 433.5 510 L 436 510.5 L 433.5 511 L 433.5 510 Z " /><path fill="rgb(0,0,0)" stroke="rgb(0,0,0)" stroke-width="1" opacity="0.44313725490196076" d="M 408.5 511 L 414 511.5 L 408.5 512 L 408.5 511 Z " /><path fill="rgb(0,0,0)" stroke="rgb(0,0,0)" stroke-width="1" opacity="0.44313725490196076" d="M 422.5 511 L 429 511.5 L 422.5 512 L 422.5 511 Z " /><path fill="rgb(31,39,31)" stroke="rgb(31,39,31)" stroke-width="1" opacity="0.996078431372549" d="M 83.5 15 L 86 15.5 L 83.5 16 L 83.5 15 Z " /><path fill="rgb(31,39,31)" stroke="rgb(31,39,31)" stroke-width="1" opacity="0.996078431372549" d="M 100.5 15 L 104 15.5 L 100.5 16 L 100.5 15 Z " /><path fill="rgb(31,39,31)" stroke="rgb(31,39,31)" stroke-width="1" opacity="0.996078431372549" d="M 142.5 23 L 140.5 26 L 142.5 23 Z " /><path fill="rgb(31,39,31)" stroke="rgb(31,39,31)" stroke-width="1" opacity="0.996078431372549" d="M 55.5 24 L 54.5 26 L 55.5 24 Z " /><path fill="rgb(31,39,31)" stroke="rgb(31,39,31)" stroke-width="1" opacity="0.996078431372549" d="M 134.5 26 L 139 26.5 L 134.5 27 L 134.5 26 Z " /><path fill="rgb(31,39,31)" stroke="rgb(31,39,31)" stroke-width="1" opacity="0.996078431372549" d="M 46.5 28 L 49 28.5 L 46.5 29 L 46.5 28 Z " /><path fill="rgb(31,39,31)" stroke="rgb(31,39,31)" stroke-width="1" opacity="0.996078431372549" d="M 160.5 40 L 158.5 43 L 160.5 40 Z " /><path fill="rgb(31,39,31)" stroke="rgb(31,39,31)" stroke-width="1" opacity="0.996078431372549" d="M 27.5 46 L 28 50.5 L 27 50.5 L 27.5 46 Z " /><path fill="rgb(31,39,31)" stroke="rgb(31,39,31)" stroke-width="1" opacity="0.996078431372549" d="M 158.5 49 L 159.5 51 L 158.5 49 Z " /><path fill="rgb(31,39,31)" stroke="rgb(31,39,31)" stroke-width="1" opacity="0.996078431372549" d="M 88.5 52 L 99 52.5 L 88.5 53 L 88.5 52 Z " /><path fill="rgb(31,39,31)" stroke="rgb(31,39,31)" stroke-width="1" opacity="0.996078431372549" d="M 25.5 54 L 24.5 56 L 25.5 54 Z " /><path fill="rgb(31,39,31)" stroke="rgb(31,39,31)" stroke-width="1" opacity="0.996078431372549" d="M 161.5 54 L 162.5 56 L 161.5 54 Z " /><path fill="rgb(31,39,31)" stroke="rgb(31,39,31)" stroke-width="1" opacity="0.996078431372549" d="M 71.5 58 L 70.5 60 L 71.5 58 Z " /><path fill="rgb(31,39,31)" stroke="rgb(31,39,31)" stroke-width="1" opacity="0.996078431372549" d="M 115.5 58 L 116.5 60 L 115.5 58 Z " /><path fill="rgb(31,39,31)" stroke="rgb(31,39,31)" stroke-width="1" opacity="0.996078431372549" d="M 68.5 60 L 65.5 64 L 68.5 60 Z " /><path fill="rgb(31,39,31)" stroke="rgb(31,39,31)" stroke-width="1" opacity="0.996078431372549" d="M 119.5 61 L 124.5 67 L 119.5 61 Z " /><path fill="rgb(31,39,31)" stroke="rgb(31,39,31)" stroke-width="1" opacity="0.996078431372549" d="M 63.5 65 L 60.5 69 L 63.5 65 Z " /><path fill="rgb(31,39,31)" stroke="rgb(31,39,31)" stroke-width="1" opacity="0.996078431372549" d="M 87.5 67 L 90 67.5 L 87.5 68 L 87.5 67 Z " /><path fill="rgb(31,39,31)" stroke="rgb(31,39,31)" stroke-width="1" opacity="0.996078431372549" d="M 126.5 69 L 127.5 71 L 126.5 69 Z " /><path fill="rgb(31,39,31)" stroke="rgb(31,39,31)" stroke-width="1" opacity="0.996078431372549" d="M 79.5 70 L 78.5 72 L 79.5 70 Z " /><path fill="rgb(31,39,31)" stroke="rgb(31,39,31)" stroke-width="1" opacity="0.996078431372549" d="M 108.5 71 L 110.5 74 L 108.5 71 Z " /><path fill="rgb(31,39,31)" stroke="rgb(31,39,31)" stroke-width="1" opacity="0.996078431372549" d="M 75.5 73 L 73.5 76 L 75.5 73 Z " /><path fill="rgb(31,39,31)" stroke="rgb(31,39,31)" stroke-width="1" opacity="0.996078431372549" d="M 113.5 76 L 114.5 78 L 113.5 76 Z " /><path fill="rgb(31,39,31)" stroke="rgb(31,39,31)" stroke-width="1" opacity="0.996078431372549" d="M 71.5 78 L 70.5 80 L 71.5 78 Z " /><path fill="rgb(31,39,31)" stroke="rgb(31,39,31)" stroke-width="1" opacity="0.996078431372549" d="M 15.5 81 L 16 83.5 L 15 83.5 L 15.5 81 Z " /><path fill="rgb(31,39,31)" stroke="rgb(31,39,31)" stroke-width="1" opacity="0.996078431372549" d="M 171.5 83 L 172 86.5 L 171 86.5 L 171.5 83 Z " /><path fill="rgb(31,39,31)" stroke="rgb(31,39,31)" stroke-width="1" opacity="0.996078431372549" d="M 52.5 87 L 53 89.5 L 52 89.5 L 52.5 87 Z " /><path fill="rgb(31,39,31)" stroke="rgb(31,39,31)" stroke-width="1" opacity="0.996078431372549" d="M 134.5 88 L 135 99.5 L 134 99.5 L 134.5 88 Z " /><path fill="rgb(31,39,31)" stroke="rgb(31,39,31)" stroke-width="1" opacity="0.996078431372549" d="M 52.5 98 L 53 100.5 L 52 100.5 L 52.5 98 Z " /><path fill="rgb(31,39,31)" stroke="rgb(31,39,31)" stroke-width="1" opacity="0.996078431372549" d="M 101.5 99 L 100.5 101 L 101.5 99 Z " /><path fill="rgb(31,39,31)" stroke="rgb(31,39,31)" stroke-width="1" opacity="0.996078431372549" d="M 111.5 100 L 116.5 105 L 118 104.5 L 116.5 106 L 111.5 100 Z " /><path fill="rgb(31,39,31)" stroke="rgb(31,39,31)" stroke-width="1" opacity="0.996078431372549" d="M 171.5 100 L 172 103.5 L 171 103.5 L 171.5 100 Z " /><path fill="rgb(31,39,31)" stroke="rgb(31,39,31)" stroke-width="1" opacity="0.996078431372549" d="M 15.5 101 L 16 103.5 L 15 103.5 L 15.5 101 Z " /><path fill="rgb(31,39,31)" stroke="rgb(31,39,31)" stroke-width="1" opacity="0.996078431372549" d="M 98.5 104 L 99 106.5 L 98 106.5 L 98.5 104 Z " /><path fill="rgb(31,39,31)" stroke="rgb(31,39,31)" stroke-width="1" opacity="0.996078431372549" d="M 70.5 107 L 71.5 109 L 70.5 107 Z " /><path fill="rgb(31,39,31)" stroke="rgb(31,39,31)" stroke-width="1" opacity="0.996078431372549" d="M 170.5 107 L 171 109.5 L 170 109.5 L 170.5 107 Z " /><path fill="rgb(31,39,31)" stroke="rgb(31,39,31)" stroke-width="1" opacity="0.996078431372549" d="M 72.5 110 L 76.5 115 L 72.5 110 Z " /><path fill="rgb(31,39,31)" stroke="rgb(31,39,31)" stroke-width="1" opacity="0.996078431372549" d="M 100.5 110 L 106.5 117 L 100.5 110 Z " /><path fill="rgb(31,39,31)" stroke="rgb(31,39,31)" stroke-width="1" opacity="0.996078431372549" d="M 78.5 115 L 79.5 117 L 78.5 115 Z " /><path fill="rgb(31,39,31)" stroke="rgb(31,39,31)" stroke-width="1" opacity="0.996078431372549" d="M 128.5 117 L 132.5 122 L 128.5 117 Z " /><path fill="rgb(31,39,31)" stroke="rgb(31,39,31)" stroke-width="1" opacity="0.996078431372549" d="M 60.5 118 L 62.5 121 L 60.5 118 Z " /><path fill="rgb(31,39,31)" stroke="rgb(31,39,31)" stroke-width="1" opacity="0.996078431372549" d="M 65.5 123 L 67.5 126 L 65.5 123 Z " /><path fill="rgb(31,39,31)" stroke="rgb(31,39,31)" stroke-width="1" opacity="0.996078431372549" d="M 70.5 127 L 71.5 129 L 70.5 127 Z " /><path fill="rgb(31,39,31)" stroke="rgb(31,39,31)" stroke-width="1" opacity="0.996078431372549" d="M 116.5 127 L 123 132.5 L 117.5 128 L 115.5 129 L 116.5 127 Z " /><path fill="rgb(31,39,31)" stroke="rgb(31,39,31)" stroke-width="1" opacity="0.996078431372549" d="M 133.5 131 L 131.5 134 L 133.5 131 Z " /><path fill="rgb(31,39,31)" stroke="rgb(31,39,31)" stroke-width="1" opacity="0.996078431372549" d="M 88.5 134 L 92 134.5 L 88.5 135 L 88.5 134 Z " /><path fill="rgb(31,39,31)" stroke="rgb(31,39,31)" stroke-width="1" opacity="0.996078431372549" d="M 96.5 134 L 100 134.5 L 96.5 135 L 96.5 134 Z " /><path fill="rgb(31,39,31)" stroke="rgb(31,39,31)" stroke-width="1" opacity="0.996078431372549" d="M 126.5 134 L 129 134.5 L 126.5 135 L 126.5 134 Z " /><path fill="rgb(31,39,31)" stroke="rgb(31,39,31)" stroke-width="1" opacity="0.996078431372549" d="M 159.5 136 L 158.5 138 L 159.5 136 Z " /><path fill="rgb(31,39,31)" stroke="rgb(31,39,31)" stroke-width="1" opacity="0.996078431372549" d="M 28.5 137 L 29.5 139 L 28.5 137 Z " /><path fill="rgb(31,39,31)" stroke="rgb(31,39,31)" stroke-width="1" opacity="0.996078431372549" d="M 157.5 139 L 155.5 142 L 157.5 139 Z " /><path fill="rgb(31,39,31)" stroke="rgb(31,39,31)" stroke-width="1" opacity="0.996078431372549" d="M 31.5 141 L 32.5 143 L 31.5 141 Z " /><path fill="rgb(31,39,31)" stroke="rgb(31,39,31)" stroke-width="1" opacity="0.996078431372549" d="M 36.5 147 L 41.5 153 L 36.5 147 Z " /><path fill="rgb(31,39,31)" stroke="rgb(31,39,31)" stroke-width="1" opacity="0.996078431372549" d="M 124.5 154 L 123.5 156 L 124.5 154 Z " /><path fill="rgb(31,39,31)" stroke="rgb(31,39,31)" stroke-width="1" opacity="0.996078431372549" d="M 45.5 155 L 46.5 157 L 45.5 155 Z " /><path fill="rgb(31,39,31)" stroke="rgb(31,39,31)" stroke-width="1" opacity="0.996078431372549" d="M 49.5 158 L 50.5 160 L 49.5 158 Z " /><path fill="rgb(31,39,31)" stroke="rgb(31,39,31)" stroke-width="1" opacity="0.996078431372549" d="M 158.5 158 L 163 158.5 L 158.5 159 L 158.5 158 Z " /><path fill="rgb(31,39,31)" stroke="rgb(31,39,31)" stroke-width="1" opacity="0.996078431372549" d="M 174.5 158 L 179 158.5 L 174.5 159 L 174.5 158 Z " /><path fill="rgb(31,39,31)" stroke="rgb(31,39,31)" stroke-width="1" opacity="0.996078431372549" d="M 116.5 159 L 115.5 161 L 116.5 159 Z " /><path fill="rgb(31,39,31)" stroke="rgb(31,39,31)" stroke-width="1" opacity="0.996078431372549" d="M 152.5 159 L 155 159.5 L 152.5 160 L 152.5 159 Z " /><path fill="rgb(31,39,31)" stroke="rgb(31,39,31)" stroke-width="1" opacity="0.996078431372549" d="M 113.5 161 L 111.5 164 L 113.5 161 Z " /><path fill="rgb(31,39,31)" stroke="rgb(31,39,31)" stroke-width="1" opacity="0.996078431372549" d="M 108.5 165 L 102.5 172 L 101 171.5 L 108.5 165 Z " /><path fill="rgb(31,39,31)" stroke="rgb(31,39,31)" stroke-width="1" opacity="0.996078431372549" d="M 211.5 170 L 212.5 172 L 211.5 170 Z " /><path fill="rgb(31,39,31)" stroke="rgb(31,39,31)" stroke-width="1" opacity="0.996078431372549" d="M 81.5 171 L 84 171.5 L 81.5 172 L 81.5 171 Z " /><path fill="rgb(31,39,31)" stroke="rgb(31,39,31)" stroke-width="1" opacity="0.996078431372549" d="M 123.5 172 L 122.5 174 L 123.5 172 Z " /><path fill="rgb(31,39,31)" stroke="rgb(31,39,31)" stroke-width="1" opacity="0.996078431372549" d="M 119.5 175 L 116.5 179 L 119.5 175 Z " /><path fill="rgb(31,39,31)" stroke="rgb(31,39,31)" stroke-width="1" opacity="0.996078431372549" d="M 219.5 176 L 229.5 187 L 219.5 176 Z " /><path fill="rgb(31,39,31)" stroke="rgb(31,39,31)" stroke-width="1" opacity="0.996078431372549" d="M 111.5 183 L 108.5 187 L 111.5 183 Z " /><path fill="rgb(31,39,31)" stroke="rgb(31,39,31)" stroke-width="1" opacity="0.996078431372549" d="M 106.5 189 L 105.5 191 L 106.5 189 Z " /><path fill="rgb(31,39,31)" stroke="rgb(31,39,31)" stroke-width="1" opacity="0.996078431372549" d="M 231.5 189 L 232.5 191 L 231.5 189 Z " /><path fill="rgb(31,39,31)" stroke="rgb(31,39,31)" stroke-width="1" opacity="0.996078431372549" d="M 104.5 192 L 103.5 194 L 104.5 192 Z " /><path fill="rgb(31,39,31)" stroke="rgb(31,39,31)" stroke-width="1" opacity="0.996078431372549" d="M 102.5 195 L 101.5 197 L 102.5 195 Z " /><path fill="rgb(31,39,31)" stroke="rgb(31,39,31)" stroke-width="1" opacity="0.996078431372549" d="M 143.5 198 L 148 198.5 L 143.5 199 L 143.5 198 Z " /><path fill="rgb(31,39,31)" stroke="rgb(31,39,31)" stroke-width="1" opacity="0.996078431372549" d="M 149.5 199 L 151.5 202 L 149.5 199 Z " /><path fill="rgb(31,39,31)" stroke="rgb(31,39,31)" stroke-width="1" opacity="0.996078431372549" d="M 196.5 199 L 198.5 202 L 196.5 199 Z " /><path fill="rgb(31,39,31)" stroke="rgb(31,39,31)" stroke-width="1" opacity="0.996078431372549" d="M 152.5 204 L 153 253.5 L 152 253.5 L 152.5 204 Z " /><path fill="rgb(31,39,31)" stroke="rgb(31,39,31)" stroke-width="1" opacity="0.996078431372549" d="M 310.5 220 L 323 220.5 L 310.5 221 L 310.5 220 Z " /><path fill="rgb(31,39,31)" stroke="rgb(31,39,31)" stroke-width="1" opacity="0.996078431372549" d="M 327.5 221 L 330 221.5 L 327.5 222 L 327.5 221 Z " /><path fill="rgb(31,39,31)" stroke="rgb(31,39,31)" stroke-width="1" opacity="0.996078431372549" d="M 91.5 222 L 92 224.5 L 91 224.5 L 91.5 222 Z " /><path fill="rgb(31,39,31)" stroke="rgb(31,39,31)" stroke-width="1" opacity="0.996078431372549" d="M 246.5 223 L 247 225.5 L 246 225.5 L 246.5 223 Z " /><path fill="rgb(31,39,31)" stroke="rgb(31,39,31)" stroke-width="1" opacity="0.996078431372549" d="M 347.5 227 L 351 228.5 L 349.5 229 L 347.5 227 Z " /><path fill="rgb(31,39,31)" stroke="rgb(31,39,31)" stroke-width="1" opacity="0.996078431372549" d="M 90.5 229 L 91 234.5 L 90 234.5 L 90.5 229 Z " /><path fill="rgb(31,39,31)" stroke="rgb(31,39,31)" stroke-width="1" opacity="0.996078431372549" d="M 352.5 229 L 353.5 231 L 352.5 229 Z " /><path fill="rgb(31,39,31)" stroke="rgb(31,39,31)" stroke-width="1" opacity="0.996078431372549" d="M 277.5 230 L 276.5 232 L 277.5 230 Z " /><path fill="rgb(31,39,31)" stroke="rgb(31,39,31)" stroke-width="1" opacity="0.996078431372549" d="M 247.5 232 L 248 235.5 L 244 238.5 Q 247.6 237.1 247.5 232 Z " /><path fill="rgb(31,39,31)" stroke="rgb(31,39,31)" stroke-width="1" opacity="0.996078431372549" d="M 272.5 233 L 271.5 235 L 272.5 233 Z " /><path fill="rgb(31,39,31)" stroke="rgb(31,39,31)" stroke-width="1" opacity="0.996078431372549" d="M 359.5 233 L 363 233.5 L 359.5 234 L 359.5 233 Z " /><path fill="rgb(31,39,31)" stroke="rgb(31,39,31)" stroke-width="1" opacity="0.996078431372549" d="M 269.5 235 L 267.5 238 L 269.5 235 Z " /><path fill="rgb(31,39,31)" stroke="rgb(31,39,31)" stroke-width="1" opacity="0.996078431372549" d="M 264.5 239 L 254.5 250 L 264.5 239 Z " /><path fill="rgb(31,39,31)" stroke="rgb(31,39,31)" stroke-width="1" opacity="0.996078431372549" d="M 90.5 240 L 91 245.5 L 90 245.5 L 90.5 240 Z " /><path fill="rgb(31,39,31)" stroke="rgb(31,39,31)" stroke-width="1" opacity="0.996078431372549" d="M 242.5 241 L 240.5 244 L 242.5 241 Z " /><path fill="rgb(31,39,31)" stroke="rgb(31,39,31)" stroke-width="1" opacity="0.996078431372549" d="M 239.5 245 L 238.5 247 L 239.5 245 Z " /><path fill="rgb(31,39,31)" stroke="rgb(31,39,31)" stroke-width="1" opacity="0.996078431372549" d="M 91.5 250 L 92 252.5 L 91 252.5 L 91.5 250 Z " /><path fill="rgb(31,39,31)" stroke="rgb(31,39,31)" stroke-width="1" opacity="0.996078431372549" d="M 381.5 251 L 382 256.5 L 381 256.5 L 381.5 251 Z " /><path fill="rgb(31,39,31)" stroke="rgb(31,39,31)" stroke-width="1" opacity="0.996078431372549" d="M 252.5 252 L 251.5 254 L 252.5 252 Z " /><path fill="rgb(31,39,31)" stroke="rgb(31,39,31)" stroke-width="1" opacity="0.996078431372549" d="M 199.5 253 L 200 256.5 L 199 256.5 L 199.5 253 Z " /><path fill="rgb(31,39,31)" stroke="rgb(31,39,31)" stroke-width="1" opacity="0.996078431372549" d="M 138.5 256 L 139 258.5 L 138 258.5 L 138.5 256 Z " /><path fill="rgb(31,39,31)" stroke="rgb(31,39,31)" stroke-width="1" opacity="0.996078431372549" d="M 382.5 258 L 383.5 260 L 382.5 258 Z " /><path fill="rgb(31,39,31)" stroke="rgb(31,39,31)" stroke-width="1" opacity="0.996078431372549" d="M 182.5 259 L 179.5 263 L 182.5 259 Z " /><path fill="rgb(31,39,31)" stroke="rgb(31,39,31)" stroke-width="1" opacity="0.996078431372549" d="M 321.5 261 L 323 263.5 L 322 263.5 L 321.5 261 Z " /><path fill="rgb(31,39,31)" stroke="rgb(31,39,31)" stroke-width="1" opacity="0.996078431372549" d="M 158.5 262 L 159.5 264 L 158.5 262 Z " /><path fill="rgb(31,39,31)" stroke="rgb(31,39,31)" stroke-width="1" opacity="0.996078431372549" d="M 195.5 266 L 194.5 268 L 195.5 266 Z " /><path fill="rgb(31,39,31)" stroke="rgb(31,39,31)" stroke-width="1" opacity="0.996078431372549" d="M 143.5 268 L 149.5 275 L 143.5 268 Z " /><path fill="rgb(31,39,31)" stroke="rgb(31,39,31)" stroke-width="1" opacity="0.996078431372549" d="M 193.5 269 L 190.5 273 L 193.5 269 Z " /><path fill="rgb(31,39,31)" stroke="rgb(31,39,31)" stroke-width="1" opacity="0.996078431372549" d="M 187.5 274 L 186.5 276 L 187.5 274 Z " /><path fill="rgb(31,39,31)" stroke="rgb(31,39,31)" stroke-width="1" opacity="0.996078431372549" d="M 151.5 275 L 152.5 277 L 151.5 275 Z " /><path fill="rgb(31,39,31)" stroke="rgb(31,39,31)" stroke-width="1" opacity="0.996078431372549" d="M 101.5 277 L 102.5 279 L 101.5 277 Z " /><path fill="rgb(31,39,31)" stroke="rgb(31,39,31)" stroke-width="1" opacity="0.996078431372549" d="M 163.5 280 L 174 280.5 L 163.5 281 L 163.5 280 Z " /><path fill="rgb(31,39,31)" stroke="rgb(31,39,31)" stroke-width="1" opacity="0.996078431372549" d="M 103.5 281 L 104 283.5 L 103 283.5 L 103.5 281 Z " /><path fill="rgb(31,39,31)" stroke="rgb(31,39,31)" stroke-width="1" opacity="0.996078431372549" d="M 237.5 287 L 238 290.5 L 237 290.5 L 237.5 287 Z " /><path fill="rgb(31,39,31)" stroke="rgb(31,39,31)" stroke-width="1" opacity="0.996078431372549" d="M 393.5 287 L 394 290.5 L 393 290.5 L 393.5 287 Z " /><path fill="rgb(31,39,31)" stroke="rgb(31,39,31)" stroke-width="1" opacity="0.996078431372549" d="M 222.5 290 L 223 293.5 L 222 293.5 L 222.5 290 Z " /><path fill="rgb(31,39,31)" stroke="rgb(31,39,31)" stroke-width="1" opacity="0.996078431372549" d="M 218.5 297 L 217.5 299 L 218.5 297 Z " /><path fill="rgb(31,39,31)" stroke="rgb(31,39,31)" stroke-width="1" opacity="0.996078431372549" d="M 214.5 300 L 213.5 302 L 214.5 300 Z " /><path fill="rgb(31,39,31)" stroke="rgb(31,39,31)" stroke-width="1" opacity="0.996078431372549" d="M 129.5 304 L 130.5 306 L 129.5 304 Z " /><path fill="rgb(31,39,31)" stroke="rgb(31,39,31)" stroke-width="1" opacity="0.996078431372549" d="M 393.5 305 L 394 309.5 L 393 309.5 L 393.5 305 Z " /><path fill="rgb(31,39,31)" stroke="rgb(31,39,31)" stroke-width="1" opacity="0.996078431372549" d="M 237.5 307 L 238 310.5 L 237 310.5 L 237.5 307 Z " /><path fill="rgb(31,39,31)" stroke="rgb(31,39,31)" stroke-width="1" opacity="0.996078431372549" d="M 151.5 313 L 154 313.5 L 151.5 314 L 151.5 313 Z " /><path fill="rgb(31,39,31)" stroke="rgb(31,39,31)" stroke-width="1" opacity="0.996078431372549" d="M 156.5 314 L 160 314.5 L 156.5 315 L 156.5 314 Z " /><path fill="rgb(31,39,31)" stroke="rgb(31,39,31)" stroke-width="1" opacity="0.996078431372549" d="M 177.5 314 L 181 314.5 L 177.5 315 L 177.5 314 Z " /><path fill="rgb(31,39,31)" stroke="rgb(31,39,31)" stroke-width="1" opacity="0.996078431372549" d="M 386.5 331 L 387 332.5 L 383.5 338 L 384 336.5 L 386.5 331 Z " /><path fill="rgb(31,39,31)" stroke="rgb(31,39,31)" stroke-width="1" opacity="0.996078431372549" d="M 309.5 337 L 310.5 339 L 309.5 337 Z " /><path fill="rgb(31,39,31)" stroke="rgb(31,39,31)" stroke-width="1" opacity="0.996078431372549" d="M 321.5 337 L 320.5 339 L 321.5 337 Z " /><path fill="rgb(31,39,31)" stroke="rgb(31,39,31)" stroke-width="1" opacity="0.996078431372549" d="M 416.5 339 L 421 339.5 L 416.5 340 L 416.5 339 Z " /><path fill="rgb(31,39,31)" stroke="rgb(31,39,31)" stroke-width="1" opacity="0.996078431372549" d="M 248.5 340 L 249.5 342 L 248.5 340 Z " /><path fill="rgb(31,39,31)" stroke="rgb(31,39,31)" stroke-width="1" opacity="0.996078431372549" d="M 406.5 340 L 410 340.5 L 406.5 341 L 406.5 340 Z " /><path fill="rgb(31,39,31)" stroke="rgb(31,39,31)" stroke-width="1" opacity="0.996078431372549" d="M 427.5 340 L 431 340.5 L 427.5 341 L 427.5 340 Z " /><path fill="rgb(31,39,31)" stroke="rgb(31,39,31)" stroke-width="1" opacity="0.996078431372549" d="M 381.5 341 L 380.5 343 L 381.5 341 Z " /><path fill="rgb(31,39,31)" stroke="rgb(31,39,31)" stroke-width="1" opacity="0.996078431372549" d="M 398.5 342 L 397.5 344 L 398.5 342 Z " /><path fill="rgb(31,39,31)" stroke="rgb(31,39,31)" stroke-width="1" opacity="0.996078431372549" d="M 250.5 343 L 251.5 345 L 250.5 343 Z " /><path fill="rgb(31,39,31)" stroke="rgb(31,39,31)" stroke-width="1" opacity="0.996078431372549" d="M 379.5 344 L 378.5 346 L 379.5 344 Z " /><path fill="rgb(31,39,31)" stroke="rgb(31,39,31)" stroke-width="1" opacity="0.996078431372549" d="M 252.5 346 L 254.5 349 L 252.5 346 Z " /><path fill="rgb(31,39,31)" stroke="rgb(31,39,31)" stroke-width="1" opacity="0.996078431372549" d="M 376.5 348 L 373.5 352 L 376.5 348 Z " /><path fill="rgb(31,39,31)" stroke="rgb(31,39,31)" stroke-width="1" opacity="0.996078431372549" d="M 454.5 348 L 458 350.5 L 456.5 350 L 454.5 348 Z " /><path fill="rgb(31,39,31)" stroke="rgb(31,39,31)" stroke-width="1" opacity="0.996078431372549" d="M 393.5 350 L 392.5 352 L 393.5 350 Z " /><path fill="rgb(31,39,31)" stroke="rgb(31,39,31)" stroke-width="1" opacity="0.996078431372549" d="M 459.5 351 L 460.5 353 L 459.5 351 Z " /><path fill="rgb(31,39,31)" stroke="rgb(31,39,31)" stroke-width="1" opacity="0.996078431372549" d="M 257.5 352 L 261.5 357 L 257.5 352 Z " /><path fill="rgb(31,39,31)" stroke="rgb(31,39,31)" stroke-width="1" opacity="0.996078431372549" d="M 391.5 353 L 389.5 356 L 391.5 353 Z " /><path fill="rgb(31,39,31)" stroke="rgb(31,39,31)" stroke-width="1" opacity="0.996078431372549" d="M 462.5 353 L 463.5 355 L 462.5 353 Z " /><path fill="rgb(31,39,31)" stroke="rgb(31,39,31)" stroke-width="1" opacity="0.996078431372549" d="M 465.5 355 L 468.5 359 L 465.5 355 Z " /><path fill="rgb(31,39,31)" stroke="rgb(31,39,31)" stroke-width="1" opacity="0.996078431372549" d="M 366.5 358 L 363.5 362 L 366.5 358 Z " /><path fill="rgb(31,39,31)" stroke="rgb(31,39,31)" stroke-width="1" opacity="0.996078431372549" d="M 387.5 358 L 384.5 362 L 387.5 358 Z " /><path fill="rgb(31,39,31)" stroke="rgb(31,39,31)" stroke-width="1" opacity="0.996078431372549" d="M 265.5 359 L 267.5 362 L 265.5 359 Z " /><path fill="rgb(31,39,31)" stroke="rgb(31,39,31)" stroke-width="1" opacity="0.996078431372549" d="M 473.5 362 L 474.5 364 L 473.5 362 Z " /><path fill="rgb(31,39,31)" stroke="rgb(31,39,31)" stroke-width="1" opacity="0.996078431372549" d="M 270.5 363 L 271.5 365 L 270.5 363 Z " /><path fill="rgb(31,39,31)" stroke="rgb(31,39,31)" stroke-width="1" opacity="0.996078431372549" d="M 360.5 363 L 359.5 365 L 360.5 363 Z " /><path fill="rgb(31,39,31)" stroke="rgb(31,39,31)" stroke-width="1" opacity="0.996078431372549" d="M 357.5 365 L 356.5 367 L 357.5 365 Z " /><path fill="rgb(31,39,31)" stroke="rgb(31,39,31)" stroke-width="1" opacity="0.996078431372549" d="M 477.5 367 L 480.5 371 L 477.5 367 Z " /><path fill="rgb(31,39,31)" stroke="rgb(31,39,31)" stroke-width="1" opacity="0.996078431372549" d="M 377.5 368 L 374.5 372 L 377.5 368 Z " /><path fill="rgb(31,39,31)" stroke="rgb(31,39,31)" stroke-width="1" opacity="0.996078431372549" d="M 481.5 372 L 482.5 374 L 481.5 372 Z " /><path fill="rgb(31,39,31)" stroke="rgb(31,39,31)" stroke-width="1" opacity="0.996078431372549" d="M 371.5 373 L 370.5 375 L 371.5 373 Z " /><path fill="rgb(31,39,31)" stroke="rgb(31,39,31)" stroke-width="1" opacity="0.996078431372549" d="M 483.5 375 L 484.5 377 L 483.5 375 Z " /><path fill="rgb(31,39,31)" stroke="rgb(31,39,31)" stroke-width="1" opacity="0.996078431372549" d="M 300.5 376 L 303 376.5 L 300.5 377 L 300.5 376 Z " /><path fill="rgb(31,39,31)" stroke="rgb(31,39,31)" stroke-width="1" opacity="0.996078431372549" d="M 328.5 376 L 332 376.5 L 328.5 377 L 328.5 376 Z " /><path fill="rgb(31,39,31)" stroke="rgb(31,39,31)" stroke-width="1" opacity="0.996078431372549" d="M 307.5 377 L 325 377.5 L 307.5 378 L 307.5 377 Z " /><path fill="rgb(31,39,31)" stroke="rgb(31,39,31)" stroke-width="1" opacity="0.996078431372549" d="M 392.5 378 L 391.5 380 L 392.5 378 Z " /><path fill="rgb(31,39,31)" stroke="rgb(31,39,31)" stroke-width="1" opacity="0.996078431372549" d="M 485.5 378 L 486.5 380 L 485.5 378 Z " /><path fill="rgb(31,39,31)" stroke="rgb(31,39,31)" stroke-width="1" opacity="0.996078431372549" d="M 362.5 379 L 361.5 381 L 362.5 379 Z " /><path fill="rgb(31,39,31)" stroke="rgb(31,39,31)" stroke-width="1" opacity="0.996078431372549" d="M 444.5 391 L 443.5 393 L 444.5 391 Z " /><path fill="rgb(31,39,31)" stroke="rgb(31,39,31)" stroke-width="1" opacity="0.996078431372549" d="M 425.5 393 L 424.5 395 L 425.5 393 Z " /><path fill="rgb(31,39,31)" stroke="rgb(31,39,31)" stroke-width="1" opacity="0.996078431372549" d="M 442.5 394 L 441.5 396 L 442.5 394 Z " /><path fill="rgb(31,39,31)" stroke="rgb(31,39,31)" stroke-width="1" opacity="0.996078431372549" d="M 423.5 396 L 422.5 398 L 423.5 396 Z " /><path fill="rgb(31,39,31)" stroke="rgb(31,39,31)" stroke-width="1" opacity="0.996078431372549" d="M 440.5 397 L 439.5 399 L 440.5 397 Z " /><path fill="rgb(31,39,31)" stroke="rgb(31,39,31)" stroke-width="1" opacity="0.996078431372549" d="M 494.5 398 L 495 400.5 L 494 400.5 L 494.5 398 Z " /><path fill="rgb(31,39,31)" stroke="rgb(31,39,31)" stroke-width="1" opacity="0.996078431372549" d="M 438.5 400 L 437.5 402 L 438.5 400 Z " /><path fill="rgb(31,39,31)" stroke="rgb(31,39,31)" stroke-width="1" opacity="0.996078431372549" d="M 341.5 401 L 342 403.5 L 341 403.5 L 341.5 401 Z " /><path fill="rgb(31,39,31)" stroke="rgb(31,39,31)" stroke-width="1" opacity="0.996078431372549" d="M 495.5 402 L 496 404.5 L 495 404.5 L 495.5 402 Z " /><path fill="rgb(31,39,31)" stroke="rgb(31,39,31)" stroke-width="1" opacity="0.996078431372549" d="M 436.5 403 L 435.5 405 L 436.5 403 Z " /><path fill="rgb(31,39,31)" stroke="rgb(31,39,31)" stroke-width="1" opacity="0.996078431372549" d="M 340.5 406 L 341 409.5 L 340 409.5 L 340.5 406 Z " /><path fill="rgb(31,39,31)" stroke="rgb(31,39,31)" stroke-width="1" opacity="0.996078431372549" d="M 416.5 407 L 415.5 409 L 416.5 407 Z " /><path fill="rgb(31,39,31)" stroke="rgb(31,39,31)" stroke-width="1" opacity="0.996078431372549" d="M 496.5 408 L 497 412.5 L 496 412.5 L 496.5 408 Z " /><path fill="rgb(31,39,31)" stroke="rgb(31,39,31)" stroke-width="1" opacity="0.996078431372549" d="M 414.5 410 L 413.5 412 L 414.5 410 Z " /><path fill="rgb(31,39,31)" stroke="rgb(31,39,31)" stroke-width="1" opacity="0.996078431372549" d="M 412.5 413 L 411.5 415 L 412.5 413 Z " /><path fill="rgb(31,39,31)" stroke="rgb(31,39,31)" stroke-width="1" opacity="0.996078431372549" d="M 429.5 414 L 428.5 416 L 429.5 414 Z " /><path fill="rgb(31,39,31)" stroke="rgb(31,39,31)" stroke-width="1" opacity="0.996078431372549" d="M 410.5 416 L 409.5 418 L 410.5 416 Z " /><path fill="rgb(31,39,31)" stroke="rgb(31,39,31)" stroke-width="1" opacity="0.996078431372549" d="M 427.5 417 L 426.5 419 L 427.5 417 Z " /><path fill="rgb(31,39,31)" stroke="rgb(31,39,31)" stroke-width="1" opacity="0.996078431372549" d="M 408.5 419 L 407.5 421 L 408.5 419 Z " /><path fill="rgb(31,39,31)" stroke="rgb(31,39,31)" stroke-width="1" opacity="0.996078431372549" d="M 425.5 420 L 424.5 422 L 425.5 420 Z " /><path fill="rgb(31,39,31)" stroke="rgb(31,39,31)" stroke-width="1" opacity="0.996078431372549" d="M 423.5 423 L 422.5 425 L 423.5 423 Z " /><path fill="rgb(31,39,31)" stroke="rgb(31,39,31)" stroke-width="1" opacity="0.996078431372549" d="M 340.5 425 L 341 429.5 L 340 429.5 L 340.5 425 Z " /><path fill="rgb(31,39,31)" stroke="rgb(31,39,31)" stroke-width="1" opacity="0.996078431372549" d="M 496.5 425 L 497 429.5 L 496 429.5 L 496.5 425 Z " /><path fill="rgb(31,39,31)" stroke="rgb(31,39,31)" stroke-width="1" opacity="0.996078431372549" d="M 421.5 426 L 420.5 428 L 421.5 426 Z " /><path fill="rgb(31,39,31)" stroke="rgb(31,39,31)" stroke-width="1" opacity="0.996078431372549" d="M 401.5 430 L 400.5 432 L 401.5 430 Z " /><path fill="rgb(31,39,31)" stroke="rgb(31,39,31)" stroke-width="1" opacity="0.996078431372549" d="M 341.5 432 L 342 434.5 L 341 434.5 L 341.5 432 Z " /><path fill="rgb(31,39,31)" stroke="rgb(31,39,31)" stroke-width="1" opacity="0.996078431372549" d="M 495.5 432 L 496 434.5 L 495 434.5 L 495.5 432 Z " /><path fill="rgb(31,39,31)" stroke="rgb(31,39,31)" stroke-width="1" opacity="0.996078431372549" d="M 399.5 433 L 398.5 435 L 399.5 433 Z " /><path fill="rgb(31,39,31)" stroke="rgb(31,39,31)" stroke-width="1" opacity="0.996078431372549" d="M 397.5 436 L 396.5 438 L 397.5 436 Z " /><path fill="rgb(31,39,31)" stroke="rgb(31,39,31)" stroke-width="1" opacity="0.996078431372549" d="M 395.5 439 L 394.5 441 L 395.5 439 Z " /><path fill="rgb(31,39,31)" stroke="rgb(31,39,31)" stroke-width="1" opacity="0.996078431372549" d="M 412.5 440 L 411.5 442 L 412.5 440 Z " /><path fill="rgb(31,39,31)" stroke="rgb(31,39,31)" stroke-width="1" opacity="0.996078431372549" d="M 393.5 442 L 392.5 444 L 393.5 442 Z " /><path fill="rgb(31,39,31)" stroke="rgb(31,39,31)" stroke-width="1" opacity="0.996078431372549" d="M 410.5 443 L 409.5 445 L 410.5 443 Z " /><path fill="rgb(31,39,31)" stroke="rgb(31,39,31)" stroke-width="1" opacity="0.996078431372549" d="M 445.5 446 L 447.5 449 L 445.5 446 Z " /><path fill="rgb(31,39,31)" stroke="rgb(31,39,31)" stroke-width="1" opacity="0.996078431372549" d="M 388.5 450 L 389 453.5 L 388 453.5 L 388.5 450 Z " /><path fill="rgb(31,39,31)" stroke="rgb(31,39,31)" stroke-width="1" opacity="0.996078431372549" d="M 448.5 451 L 449 453.5 L 448 453.5 L 448.5 451 Z " /><path fill="rgb(31,39,31)" stroke="rgb(31,39,31)" stroke-width="1" opacity="0.996078431372549" d="M 349.5 456 L 350.5 458 L 349.5 456 Z " /><path fill="rgb(31,39,31)" stroke="rgb(31,39,31)" stroke-width="1" opacity="0.996078431372549" d="M 390.5 457 L 391.5 459 L 390.5 457 Z " /><path fill="rgb(31,39,31)" stroke="rgb(31,39,31)" stroke-width="1" opacity="0.996078431372549" d="M 393.5 459 L 443 459.5 L 393.5 460 L 393.5 459 Z " /><path fill="rgb(31,39,31)" stroke="rgb(31,39,31)" stroke-width="1" opacity="0.996078431372549" d="M 352.5 461 L 353.5 463 L 352.5 461 Z " /><path fill="rgb(31,39,31)" stroke="rgb(31,39,31)" stroke-width="1" opacity="0.996078431372549" d="M 484.5 461 L 485 465.5 L 484 465.5 L 484.5 461 Z " /><path fill="rgb(31,39,31)" stroke="rgb(31,39,31)" stroke-width="1" opacity="0.996078431372549" d="M 354.5 464 L 356.5 467 L 354.5 464 Z " /><path fill="rgb(31,39,31)" stroke="rgb(31,39,31)" stroke-width="1" opacity="0.996078431372549" d="M 358.5 469 L 366.5 478 L 358.5 469 Z " /><path fill="rgb(31,39,31)" stroke="rgb(31,39,31)" stroke-width="1" opacity="0.996078431372549" d="M 488.5 478 L 489 480.5 L 488 480.5 L 488.5 478 Z " /><path fill="rgb(31,39,31)" stroke="rgb(31,39,31)" stroke-width="1" opacity="0.996078431372549" d="M 460.5 484 L 462 484.5 L 459.5 486 L 460.5 484 Z " /><path fill="rgb(31,39,31)" stroke="rgb(31,39,31)" stroke-width="1" opacity="0.996078431372549" d="M 484.5 489 L 487 489.5 L 484.5 490 L 484.5 489 Z " /><path fill="rgb(31,39,31)" stroke="rgb(31,39,31)" stroke-width="1" opacity="0.996078431372549" d="M 391.5 493 L 396 493.5 L 391.5 494 L 391.5 493 Z " /><path fill="rgb(31,39,31)" stroke="rgb(31,39,31)" stroke-width="1" opacity="0.996078431372549" d="M 432.5 495 L 435 495.5 L 432.5 496 L 432.5 495 Z " /><path fill="rgb(31,39,31)" stroke="rgb(31,39,31)" stroke-width="1" opacity="0.996078431372549" d="M 408.5 496 L 412 496.5 L 408.5 497 L 408.5 496 Z " /><path fill="rgb(31,39,31)" stroke="rgb(31,39,31)" stroke-width="1" opacity="0.996078431372549" d="M 422.5 496 L 429 496.5 L 422.5 497 L 422.5 496 Z " /><path fill="rgb(248,208,4)" stroke="rgb(248,208,4)" stroke-width="1" opacity="1" d="M 163.5 158 L 182.5 159 L 201.5 165 Q 219.6 173.4 231 188.5 Q 245.8 205.2 247 235.5 Q 236.5 246 230 260.5 L 224 278.5 L 222 294.5 L 219.5 297 Q 201 314.5 165.5 315 L 165.5 314 Q 181.7 307.7 192 295.5 Q 203.4 283.4 210 266.5 L 215 244.5 L 215 229.5 L 212 213.5 L 203 192.5 Q 195.1 179.4 183.5 170 L 170.5 161 L 163.5 159 L 163.5 158 Z " /><path fill="rgb(248,208,4)" stroke="rgb(248,208,4)" stroke-width="1" opacity="1" d="M 115.5 179 L 112.5 183 L 115.5 179 Z " /><path fill="rgb(248,208,4)" stroke="rgb(248,208,4)" stroke-width="1" opacity="1" d="M 140.5 199 L 139.5 201 L 140.5 199 Z " /><path fill="rgb(248,208,4)" stroke="rgb(248,208,4)" stroke-width="1" opacity="1" d="M 90.5 235 L 91 239.5 L 90 239.5 L 90.5 235 Z " /><path fill="rgb(248,208,4)" stroke="rgb(248,208,4)" stroke-width="1" opacity="1" d="M 252.5 253 L 253 254.5 Q 248.7 273.7 238.5 287 L 238 284.5 Q 241.7 265.2 252.5 253 Z " /><path fill="rgb(248,208,4)" stroke="rgb(248,208,4)" stroke-width="1" opacity="1" d="M 155.5 259 L 157.5 262 L 155.5 259 Z " /><path fill="rgb(253,222,48)" stroke="rgb(253,222,48)" stroke-width="1" opacity="1" d="M 156.5 159 Q 166.2 157.3 170.5 161 Q 185.4 169.6 196 182.5 Q 206.6 195.4 212 213.5 L 215 229.5 L 215 244.5 L 212 260.5 L 208 271.5 Q 200.2 288.2 187.5 300 Q 177.8 310.3 162.5 315 L 140.5 310 L 122.5 301 L 97.5 308 L 98 306.5 L 102 288.5 L 104 284.5 L 104 280.5 Q 95.5 269.5 92 253.5 L 91 248.5 L 91 226.5 Q 97.4 192.4 120.5 175 Q 136.4 170.9 146.5 161 L 156.5 159 Z M 143 198 L 141 199 L 138 203 L 138 259 L 142 268 Q 149 278 164 281 L 175 281 L 190 274 Q 197 268 200 258 L 200 203 Q 199 197 190 198 L 185 203 L 185 254 L 183 259 Q 179 265 171 266 Q 164 266 160 263 L 153 256 L 153 204 L 152 202 Q 150 197 143 198 Z " /><path fill="rgb(0,0,0)" stroke="rgb(0,0,0)" stroke-width="1" opacity="0.996078431372549" d="M 89.5 0 L 107.5 1 L 117.5 3 L 139.5 12 L 144 16.5 L 144 21.5 L 139.5 26 L 133.5 26 L 125.5 21 L 109.5 16 Q 104.8 17.3 103.5 15 L 83.5 15 L 69.5 18 L 49.5 28 L 44.5 28 L 21 22 L 27 44.5 L 27 51.5 Q 19.3 61.8 16 76.5 L 15 81.5 L 15 103.5 Q 21 135.5 41.5 153 Q 54 164.5 72.5 170 L 81.5 172 L 102.5 172 Q 120.8 150.5 154 145 Q 163.5 133.7 169 117.5 L 172 103.5 L 172 83.5 L 168 66.5 Q 164.5 56 158 48.5 L 158 43.5 Q 159.5 37.5 168.5 39 L 175 47.5 L 184 69.5 L 186 79.5 L 187 97.5 L 186 98.5 L 186 107.5 L 184 117.5 L 180 129.5 L 173 141.5 L 173 144 L 182.5 144 L 195.5 147 L 214.5 155 Q 230.8 164.2 242 178.5 Q 256.8 195.7 261.5 223 Q 273.4 213.4 290.5 209 L 307.5 206 L 324.5 206 L 344.5 210 L 360.5 218 L 364.5 218 L 395.5 209 L 401.5 209 L 405 211.5 L 406 218.5 L 398 245.5 L 397 254.5 L 402 263.5 L 407 279.5 L 409 303.5 L 408 304.5 L 408 313.5 L 405 326 L 411.5 325 L 427.5 325 L 443.5 328 L 464.5 337 Q 478.6 345.4 489 357.5 Q 498.8 368.7 505 383.5 L 511 404.5 L 512 425.5 L 509 442.5 L 500 463.5 L 500 467.5 L 509 497.5 L 509 504.5 Q 506.9 508.9 500.5 509 L 464.5 499 Q 456.7 505.2 445.5 508 L 432.5 511 L 414.5 512 L 413.5 511 L 404.5 511 L 394.5 509 L 387 504.5 L 386 498.5 L 388.5 495 L 397.5 494 L 408.5 497 L 428.5 497 L 447.5 492 L 462.5 484 L 465.5 484 L 491.5 491 L 491 489.5 L 485 466.5 L 485 460.5 Q 492.6 449.6 496 434.5 L 497 429.5 L 497 408.5 Q 491.5 379 473.5 362 Q 463.8 352.2 450.5 346 L 435.5 341 L 416.5 339 L 415.5 340 L 401.5 341 L 397 343.5 Q 389.8 357.8 378.5 368 Q 365.1 381 346 387 L 340 406.5 L 340 429.5 Q 342.7 444.8 349 456.5 Q 356.2 469.3 367 478.5 L 368 484.5 L 365.5 488 L 357.5 489 Q 341.7 476.3 333 456.5 L 328 442.5 L 326 432.5 L 325 411.5 L 329 392 L 302.5 392 L 283.5 387 Q 260 378 245 360.5 Q 236.1 350.4 230 337.5 L 225 323.5 L 224 314.5 L 222.5 313 Q 210.4 322.4 193.5 327 L 184.5 329 L 176.5 329 L 175.5 330 L 161.5 330 L 140.5 326 L 120.5 317 L 93.5 325 L 84.5 326 L 80 322.5 L 79 316.5 L 85 297.5 L 88 282.5 L 84 276.5 L 78 259.5 L 76 248.5 L 76 225.5 L 81 204.5 L 90 187.5 L 86.5 186 L 72.5 185 L 59.5 181 Q 36.5 171.5 22 153.5 Q 9.3 138.2 3 116.5 L 0 99.5 L 0 86.5 L 4 65.5 L 12 48.5 L 12 44.5 L 3 10.5 L 6.5 5 L 12.5 4 L 46.5 13 Q 56.3 6.3 69.5 3 L 79.5 1 L 88.5 1 L 89.5 0 Z M 159 158 L 140 163 L 120 175 Q 108 184 101 197 L 93 215 L 90 230 L 90 246 L 92 257 Q 96 270 103 280 L 103 286 L 97 306 L 98 309 L 121 302 L 125 302 L 139 310 L 157 315 L 181 315 L 190 313 Q 206 308 218 299 L 223 294 L 224 281 L 230 262 Q 237 246 248 236 Q 246 204 230 187 Q 218 171 198 163 L 179 158 L 159 158 Z M 311 220 L 295 223 L 284 227 L 265 239 Q 243 256 237 288 L 237 311 L 239 320 Q 245 339 257 353 L 277 368 L 293 375 L 308 378 L 325 378 L 336 376 Q 352 371 364 362 Q 387 344 394 310 L 394 288 L 393 283 Q 390 268 382 258 L 382 250 L 388 231 L 388 226 L 365 233 L 359 233 Q 348 226 335 222 L 324 221 L 323 220 L 311 220 Z " /><path fill="rgb(0,0,0)" stroke="rgb(0,0,0)" stroke-width="1" opacity="0.996078431372549" d="M 85.5 53 L 102.5 53 L 108.5 55 Q 119.5 59.5 126 68.5 Q 131.7 75.3 134 85.5 L 134 102.5 L 128 117.5 Q 134.5 120 135 128.5 L 130.5 134 L 125.5 134 L 116.5 127 L 106.5 133 L 92.5 135 L 78.5 132 L 63 121.5 Q 52 111.5 52 90.5 L 54 80.5 L 59 70.5 L 64 64 L 72.5 58 L 85.5 53 Z M 88 67 L 76 73 Q 69 78 67 88 Q 65 103 72 111 Q 77 118 88 120 Q 101 122 107 117 L 99 108 L 100 102 L 106 98 L 110 99 L 117 106 L 120 100 Q 122 84 115 78 Q 108 65 88 67 Z " /><path fill="rgb(0,0,0)" stroke="rgb(0,0,0)" stroke-width="1" opacity="0.996078431372549" d="M 206.5 61 L 210.5 62 L 213 64.5 L 216 77.5 L 217 99.5 L 216 100.5 L 215 116.5 L 210.5 123 Q 203.3 124.3 201 120.5 L 200 112.5 L 202 104.5 L 202 82.5 L 200 74.5 L 200 65.5 L 206.5 61 Z " /><path fill="rgb(0,0,0)" stroke="rgb(0,0,0)" stroke-width="1" opacity="0.996078431372549" d="M 192.5 198 L 199 202.5 L 200 205.5 L 200 252.5 L 196 265.5 L 188.5 274 L 175.5 280 L 161.5 280 Q 148.7 276.3 142 266.5 L 138 255.5 L 138 203.5 L 140.5 200 L 148.5 199 L 152 202.5 L 152 253.5 Q 153.8 260.7 159.5 264 Q 164.2 267.3 173.5 266 L 183 259.5 L 185 255.5 L 185 204.5 L 187 200 L 192.5 198 Z " /><path fill="rgb(0,0,0)" stroke="rgb(0,0,0)" stroke-width="1" opacity="0.996078431372549" d="M 313.5 258 Q 319.3 257.2 321 260.5 L 323 264.5 L 323 333.5 L 319.5 339 L 313.5 340 L 309 336.5 L 308 333.5 L 308 264.5 L 311.5 259 L 313.5 258 Z " /><path fill="rgb(0,0,0)" stroke="rgb(0,0,0)" stroke-width="1" opacity="0.996078431372549" d="M 396.5 377 L 440.5 377 L 446 380.5 L 447 386.5 L 409 444.5 L 442.5 445 L 448 449.5 Q 449.1 457.1 444.5 459 L 392.5 459 L 389 455.5 L 390 447.5 L 426 392 L 396.5 392 L 391 388.5 L 390 382.5 L 393.5 378 L 396.5 377 Z " /><path fill="rgb(0,0,0)" stroke="rgb(0,0,0)" stroke-width="1" opacity="0.996078431372549" d="M 300.5 411 Q 307.4 410.1 309 414.5 L 312 441.5 L 320 466.5 L 315.5 472 Q 309.4 472.8 307 471 L 303 462.5 L 297 441.5 L 295 417.5 L 298.5 412 L 300.5 411 Z " /><path fill="rgb(253,137,206)" stroke="rgb(253,137,206)" stroke-width="1" opacity="1" d="M 305.5 221 L 326.5 221 Q 327.8 223.3 332.5 222 Q 348.2 225.7 359.5 234 L 362.5 234 L 388 227 L 381 251.5 L 381 256.5 Q 394.7 273.3 394 304.5 L 389 326.5 Q 381.5 345.5 367.5 358 Q 355.3 369.3 337.5 375 L 327.5 377 L 303.5 377 Q 271.8 370.8 255 349.5 Q 245.3 337.7 240 321.5 L 237 306.5 L 237 291.5 L 238 287.5 L 249 269.5 L 254 250.5 L 266.5 238 Q 281.8 225.3 305.5 221 Z M 313 258 L 308 263 L 308 336 L 309 338 L 316 341 L 321 339 L 323 336 L 323 263 Q 322 257 313 258 Z " /><path fill="rgb(82,210,204)" stroke="rgb(82,210,204)" stroke-width="1" opacity="0.996078431372549" d="M 86.5 15 L 107.5 16 L 126.5 22 L 134.5 27 L 138.5 27 L 143.5 23 L 160 37.5 L 161 39.5 Q 157.3 41.4 157 46.5 L 166 62.5 L 170 74.5 L 171 86.5 L 172 87.5 L 172 99.5 L 169 115.5 L 165 126.5 L 152.5 145 L 144.5 146 L 124.5 154 Q 111 161.5 100.5 172 L 84.5 172 Q 50.3 166.3 33 143.5 Q 23.3 131.7 18 115.5 L 15 100.5 L 15 84.5 L 19 67.5 L 28 50.5 L 28 46.5 L 21 22 L 48.5 29 L 65.5 20 L 86.5 15 Z M 89 52 Q 77 54 69 60 Q 56 69 52 88 Q 51 108 60 119 Q 69 132 89 135 Q 107 136 117 128 L 127 135 L 132 134 L 135 130 L 135 125 L 128 117 L 133 108 L 135 100 L 134 84 Q 131 73 125 67 Q 118 58 108 54 L 99 52 L 89 52 Z " /><path fill="rgb(82,210,204)" stroke="rgb(82,210,204)" stroke-width="1" opacity="0.996078431372549" d="M 90.5 67 L 101.5 68 L 113 75.5 Q 120.4 82.6 120 97.5 L 116.5 105 L 108.5 98 L 103.5 98 L 100 100.5 L 98 106.5 L 106 116.5 L 97.5 120 L 89.5 120 Q 77.7 117.8 72 109.5 Q 66.3 102.7 67 89.5 Q 69.2 77.7 77.5 72 L 82.5 69 L 90.5 67 Z " /><path fill="rgb(82,210,204)" stroke="rgb(82,210,204)" stroke-width="1" opacity="0.996078431372549" d="M 143.5 162 L 145 162.5 Q 135.4 170.9 121.5 175 L 121.5 174 Q 130.8 166.3 143.5 162 Z " /><path fill="rgb(82,210,204)" stroke="rgb(82,210,204)" stroke-width="1" opacity="0.996078431372549" d="M 410.5 340 L 426.5 340 L 446.5 345 Q 464.9 352.6 477 366.5 Q 486.6 376.9 492 391.5 L 496 405.5 L 497 424.5 L 494 440.5 L 484 461.5 L 484 465.5 L 491 490.5 L 489.5 490 L 467.5 484 L 460.5 484 Q 450.6 491.6 436.5 495 L 412.5 497 L 391.5 493 L 385.5 498 L 383.5 498 L 367 487.5 L 368 479.5 Q 355.2 467.8 347 451.5 L 341 431.5 L 340 410.5 L 344 392.5 L 347.5 387 Q 372.7 377.7 388 358.5 L 399.5 342 L 410.5 340 Z M 395 377 L 393 378 L 390 382 Q 389 388 391 390 L 395 392 L 426 393 L 388 451 L 390 458 L 394 460 L 443 460 L 447 458 L 449 454 L 448 449 L 444 445 L 410 445 L 448 386 L 446 379 L 443 377 L 395 377 Z " /></svg>